<?xml version="1.0" encoding="UTF-8" standalone="no"?>
<svg
   xmlns:dc="http://purl.org/dc/elements/1.1/"
   xmlns:cc="http://creativecommons.org/ns#"
   xmlns:rdf="http://www.w3.org/1999/02/22-rdf-syntax-ns#"
   xmlns:svg="http://www.w3.org/2000/svg"
   xmlns="http://www.w3.org/2000/svg"
   width="100mm"
   height="100mm"
   viewBox="0 0 100 100"
   version="1.1"
   id="svg8">
  <defs
     id="defs2" />
  <metadata
     id="metadata5">
    <rdf:RDF>
      <cc:Work
         rdf:about="">
        <dc:format>image/svg+xml</dc:format>
        <dc:type
           rdf:resource="http://purl.org/dc/dcmitype/StillImage" />
        <dc:title></dc:title>
      </cc:Work>
    </rdf:RDF>
  </metadata>
  <g
     id="layer1">
    <rect
       style="fill:#00203f;fill-opacity:1;stroke-width:0.274868;stroke:none"
       id="rect848"
       width="47.556808"
       height="38.532944"
       x="25.965588"
       y="19.463867" />
    <path
       fill="currentColor"
       d="M 46.271209,96.424662 C 18.814003,56.619853 13.717438,52.534662 13.717438,37.905798 13.717438,17.867426 29.961631,1.6232373 50,1.6232373 c 20.038367,0 36.282561,16.2441887 36.282561,36.2825607 0,14.628864 -5.096564,18.714055 -32.55377,58.518864 -1.801845,2.602892 -5.655924,2.602709 -7.457582,0 z M 50,53.023525 c 8.349327,0 15.117738,-6.768394 15.117738,-15.117727 0,-8.349338 -6.768411,-15.117735 -15.117738,-15.117735 -8.349333,0 -15.117734,6.768397 -15.117734,15.117735 0,8.349333 6.768401,15.117727 15.117734,15.117727 z"
       id="path12"
       style="fill:#3db2dc;fill-opacity:1;stroke-width:0.188972;stroke:none;stroke-opacity:1" />
  </g>
</svg>
